<svg width="15" height="21" viewBox="0 0 15 21" fill="none" xmlns="http://www.w3.org/2000/svg">
<path d="M14.1978 2.7784H10.5541C11.3512 3.51853 11.8825 4.43895 12.1482 5.53966H14.1978V8.04473H12.2621C12.1103 9.10749 11.7212 10.0279 11.095 10.806C10.4687 11.5651 9.64317 12.1629 8.61837 12.5994L13.9986 20.2H10.0417L5.20237 13.3111H4.68997H0.790033V10.806H4.29143C6.75854 10.806 8.20086 9.88558 8.61837 8.04473H0.790033V5.53966H8.61837C8.39063 4.62873 7.9067 3.94553 7.16657 3.49007C6.42643 3.01562 5.46806 2.7784 4.29143 2.7784H0.790033V0.273331H14.1978V2.7784Z" fill="#FF5573"/>
</svg>
